<?xml version="1.0" standalone="no"?>
<!DOCTYPE svg PUBLIC "-//W3C//DTD SVG 20010904//EN"
 "http://www.w3.org/TR/2001/REC-SVG-20010904/DTD/svg10.dtd">
<svg version="1.0" xmlns="http://www.w3.org/2000/svg"
 width="874.000000pt" height="874.000000pt" viewBox="0 0 874.000000 874.000000"
 preserveAspectRatio="xMidYMid meet">
<metadata>
Created by potrace 1.11, written by Peter Selinger 2001-2013
</metadata>
<g transform="translate(0.000000,874.000000) scale(0.100000,-0.100000)"
fill="#000000" stroke="none">
<path d="M0 6100 c0 -1740 4 -2640 10 -2640 6 0 10 -9 10 -20 0 -11 5 -20 10
-20 6 0 10 9 10 20 0 19 4 20 39 15 29 -4 50 0 81 16 29 15 57 22 91 20 38 -1
49 2 49 14 0 18 -5 18 -30 5 -29 -16 -35 7 -8 30 21 18 16 26 -15 21 -4 0 -7
6 -7 14 0 12 7 14 27 9 16 -4 32 -10 37 -15 5 -4 22 1 37 12 20 14 34 17 45
11 11 -6 13 -11 5 -16 -18 -12 -13 -26 14 -36 18 -7 25 -17 25 -35 0 -14 4
-25 9 -25 4 0 7 24 6 53 -2 52 9 82 26 71 5 -3 9 0 9 5 0 6 18 11 39 11 22 0
43 5 46 11 4 5 18 14 31 19 14 6 28 20 33 32 l8 22 5 -22 c4 -13 14 -22 25
-22 27 0 35 10 22 27 -7 8 -8 13 -1 13 5 0 12 9 15 21 6 23 27 17 27 -7 0 -22
17 -17 23 8 4 13 0 26 -10 33 -11 8 -14 20 -9 38 7 28 26 37 26 13 0 -9 7 -12
19 -9 24 6 37 -25 16 -41 -8 -6 -16 -27 -18 -46 -2 -30 -6 -35 -25 -32 -17 2
-20 -1 -16 -13 4 -9 12 -14 20 -11 7 3 18 -2 24 -10 18 -20 40 -17 40 6 0 20
3 21 79 24 26 1 36 7 43 25 7 20 13 23 43 18 38 -6 49 9 13 16 -17 3 -15 5 8
6 31 1 44 15 44 47 0 8 -5 14 -11 14 -6 0 -9 -6 -6 -14 4 -10 -3 -17 -23 -21
-34 -8 -50 0 -50 23 0 12 3 13 12 4 21 -21 38 -13 38 18 0 33 14 39 28 14 5
-9 13 -16 18 -15 5 0 8 -13 8 -29 -2 -34 12 -39 32 -12 12 15 13 15 14 1 0
-12 7 -15 25 -11 14 2 25 8 25 13 0 5 7 9 16 9 8 0 12 5 9 10 -3 6 -1 10 4 10
6 0 11 7 11 15 0 8 -6 15 -13 15 -7 0 -18 9 -25 20 -15 24 -5 26 20 4 13 -13
21 -14 31 -5 8 6 17 8 21 3 4 -4 12 1 17 11 12 20 32 22 47 4 13 -15 -1 -42
-17 -33 -6 4 -11 2 -11 -3 0 -6 -11 -11 -24 -11 -34 0 -42 -17 -11 -23 14 -2
28 0 31 4 9 15 24 10 25 -8 0 -14 2 -13 9 5 7 17 15 21 33 17 21 -6 23 -3 24
29 1 32 -2 35 -31 38 -26 3 -31 7 -34 33 l-3 30 16 -23 c20 -27 37 -20 29 13
-3 12 -1 26 5 29 6 4 11 4 12 -1 6 -73 15 -95 36 -91 10 2 17 -2 16 -9 -4 -16
9 -17 25 -1 18 18 14 30 -8 23 -15 -5 -22 0 -30 21 -6 15 -10 34 -8 42 5 27
23 23 35 -7 10 -28 14 -30 58 -26 54 4 57 6 61 39 2 20 -3 26 -24 29 -21 3
-18 4 11 6 21 0 36 -3 33 -8 -11 -17 28 -23 41 -6 7 11 19 15 32 10 15 -4 21
-2 21 9 0 8 7 19 16 24 9 5 14 12 12 17 -1 4 10 9 26 11 26 3 27 2 12 -15 -9
-10 -16 -21 -16 -25 0 -4 -10 -16 -22 -25 -12 -10 -18 -23 -14 -29 12 -19 36
-14 36 8 0 15 7 20 29 20 16 0 32 -6 35 -12 3 -7 3 -3 0 10 -4 15 -1 22 9 22
20 0 28 25 14 39 -9 9 -8 17 2 33 11 17 11 22 0 29 -14 9 -9 12 39 22 27 6 29
-9 2 -18 -24 -8 -27 -35 -4 -35 10 0 14 6 11 14 -8 19 45 31 70 17 16 -9 14
-10 -9 -11 -32 0 -37 -15 -8 -23 13 -3 18 -10 14 -21 -5 -12 0 -16 20 -16 16
0 26 6 26 15 0 8 7 15 15 15 8 0 26 10 40 22 23 20 24 23 9 39 -10 11 -12 19
-5 24 6 3 22 -6 36 -22 21 -24 26 -26 35 -13 6 10 10 11 10 3 0 -8 14 -13 35
-13 39 0 40 2 23 30 -10 15 -10 22 -1 31 16 16 43 4 43 -21 0 -13 7 -20 19
-20 30 0 29 32 -1 62 -33 32 -26 43 14 22 23 -12 33 -13 42 -4 8 8 6 15 -8 26
-17 12 -18 14 -3 14 10 0 26 -6 37 -12 17 -11 22 -10 29 1 11 17 104 25 98 8
-3 -7 -11 -11 -18 -9 -7 2 -28 1 -46 -3 -24 -4 -33 -11 -31 -23 2 -11 -5 -18
-21 -20 -19 -3 -21 -6 -10 -13 12 -8 12 -10 -1 -18 -20 -13 -3 -28 18 -16 26
15 82 7 75 -11 -3 -8 0 -14 6 -14 6 0 11 9 11 20 0 23 10 26 28 8 16 -16 28
17 13 35 -8 10 -7 19 4 33 8 10 15 27 15 37 0 9 5 17 11 17 5 0 7 5 4 10 -3 6
1 10 9 10 21 0 30 -18 16 -35 -11 -13 -6 -15 34 -15 25 0 46 -4 46 -9 0 -5 10
-13 23 -17 12 -4 24 -10 27 -14 8 -12 43 17 35 29 -3 6 -15 11 -26 11 -11 0
-18 4 -15 9 7 10 -17 21 -45 21 -10 0 -19 5 -19 11 0 6 16 8 44 4 38 -6 46 -4
55 14 7 12 17 18 26 14 12 -4 13 -9 4 -19 -13 -15 -4 -34 16 -34 8 0 17 -11
21 -25 9 -36 21 -31 29 13 8 49 18 64 38 56 9 -3 14 -10 11 -15 -10 -17 16 -9
35 10 10 10 15 24 11 30 -4 7 -5 24 -2 38 l5 26 18 -24 c13 -17 15 -27 7 -37
-18 -21 0 -27 22 -7 20 18 20 17 20 -8 0 -25 2 -26 46 -23 25 1 56 -3 69 -10
19 -10 25 -10 29 3 4 9 13 12 27 8 15 -5 22 -2 26 14 5 18 11 21 55 17 64 -4
85 1 91 25 4 15 0 19 -24 19 -16 0 -29 -4 -29 -10 0 -5 -11 -10 -24 -10 -31 0
-85 21 -69 27 7 2 20 0 31 -6 13 -7 26 -6 46 5 16 8 41 14 56 14 15 0 33 7 40
15 7 8 9 15 5 15 -4 0 -2 7 5 15 9 11 16 12 26 4 7 -6 19 -7 25 -3 8 5 9 3 5
-5 -5 -7 -14 -10 -22 -7 -7 3 -16 1 -19 -4 -4 -6 7 -10 24 -10 17 0 31 5 31
10 0 6 9 10 21 10 11 0 18 4 14 10 -3 5 -12 7 -20 3 -11 -4 -13 -1 -9 11 7 18
35 21 51 5 6 -6 9 -18 6 -26 -4 -10 0 -14 13 -11 15 2 18 -2 17 -19 -2 -15 3
-23 12 -23 17 0 17 3 15 110 0 68 1 73 13 50 8 -15 20 -24 30 -22 10 2 16 -3
15 -10 -2 -9 9 -13 32 -13 32 0 35 -3 38 -32 3 -34 22 -47 22 -15 0 14 2 15 9
2 6 -8 7 -18 4 -24 -4 -5 1 -7 11 -3 10 4 20 7 22 7 2 0 4 7 4 15 0 8 -4 15
-10 15 -5 0 -10 6 -10 14 0 19 51 31 61 14 4 -7 11 -9 16 -5 4 5 3 11 -2 15
-6 4 -10 13 -10 21 0 8 -6 16 -13 19 -7 2 -10 -2 -6 -12 3 -9 1 -16 -6 -16 -6
0 -9 4 -5 9 3 5 1 12 -5 16 -6 4 -8 10 -5 15 3 5 0 12 -6 16 -8 4 -9 3 -5 -4
5 -8 0 -12 -13 -12 -21 0 -29 16 -11 22 5 2 0 18 -12 36 -14 23 -23 30 -28 21
-5 -7 -7 -2 -7 13 2 22 10 16 79 -55 43 -44 75 -84 71 -90 -4 -7 0 -8 12 -3
11 4 32 1 50 -8 62 -29 91 -40 115 -41 96 -5 183 -20 195 -32 43 -43 32 -214
-35 -543 -5 -25 -12 -74 -15 -110 -4 -36 -15 -108 -25 -160 -10 -52 -26 -140
-35 -195 -9 -55 -21 -111 -26 -125 -4 -14 -15 -66 -23 -117 -20 -122 -42 -205
-74 -278 -24 -57 -26 -69 -27 -265 -3 -250 -32 -452 -102 -697 -35 -126 -41
-129 -110 -62 -30 30 -66 71 -79 92 -22 34 -109 122 -241 248 -32 29 -43 48
-43 69 0 16 -8 44 -18 62 -94 168 -91 156 -57 248 16 42 15 47 -6 110 -12 36
-23 75 -25 87 -1 12 -7 37 -13 55 -5 18 -15 81 -20 139 -6 59 -19 129 -30 156
-22 56 -78 147 -133 214 -38 47 -68 102 -87 160 -10 33 -100 129 -120 129 -5
0 -14 6 -20 14 -6 8 -24 16 -39 19 -15 3 -60 17 -100 31 -50 18 -79 23 -91 17
-10 -6 -23 -5 -34 1 -20 11 -108 27 -202 37 -58 6 -61 5 -77 -22 -23 -35 -34
-102 -19 -111 7 -5 8 -13 2 -24 -9 -16 -6 -206 4 -297 12 -116 22 -172 33
-191 6 -12 9 -24 6 -27 -4 -3 5 -27 20 -53 14 -25 26 -53 26 -60 0 -8 18 -27
40 -42 21 -15 39 -34 40 -43 0 -23 -33 -49 -63 -49 -14 0 -29 -4 -32 -10 -3
-5 -14 -10 -24 -10 -26 0 -81 -62 -81 -92 0 -20 14 -36 61 -72 34 -25 65 -46
71 -46 5 0 21 -9 35 -20 15 -11 49 -27 78 -35 29 -9 60 -22 71 -30 10 -8 34
-15 52 -15 18 0 35 -6 38 -14 3 -8 13 -12 23 -9 10 2 25 -3 34 -11 8 -9 26
-16 38 -16 21 0 22 -3 17 -77 -6 -86 -3 -103 17 -103 19 0 85 -32 85 -41 0
-11 90 -59 110 -59 9 0 30 -7 47 -15 24 -12 45 -13 116 -5 48 6 109 19 136 30
57 22 62 19 99 -60 20 -42 114 -142 266 -284 56 -53 59 -57 65 -118 4 -35 12
-73 19 -84 6 -12 14 -58 18 -103 l7 -81 -68 0 c-64 0 -70 2 -115 40 -44 37
-51 39 -74 29 -14 -7 -26 -16 -26 -21 0 -5 -13 -14 -30 -19 -17 -6 -30 -15
-30 -20 0 -5 -7 -9 -15 -9 -8 0 -23 -13 -33 -28 -9 -16 -22 -27 -28 -25 -6 2
-24 -10 -38 -28 -15 -17 -30 -29 -33 -25 -10 10 -43 -25 -43 -45 0 -10 -5 -21
-10 -24 -17 -11 -60 -103 -60 -130 0 -14 -6 -25 -14 -25 -10 0 -15 -24 -20
-87 -4 -48 -12 -95 -17 -104 -8 -16 -12 -16 -36 -4 -16 8 -53 15 -83 16 -30 2
-73 8 -95 15 -63 19 -189 80 -204 98 -7 9 -19 16 -26 16 -17 0 -61 53 -70 82
-4 13 -15 32 -25 43 -9 11 -23 43 -30 70 -15 56 -40 106 -51 100 -3 -3 -18
-28 -32 -57 -32 -69 -75 -121 -134 -165 -135 -101 -193 -189 -193 -294 0 -101
39 -147 147 -173 127 -31 227 -80 277 -135 28 -31 8 -26 -90 24 l-89 45 -209
6 c-144 3 -218 1 -237 -6 -26 -11 -27 -14 -22 -70 4 -36 1 -71 -6 -88 -10 -24
-9 -39 5 -81 13 -42 20 -51 40 -51 14 0 24 6 24 14 0 8 20 31 44 50 31 27 53
36 79 36 20 0 39 5 43 11 9 15 107 4 137 -15 12 -8 47 -17 77 -21 30 -4 72
-16 92 -26 22 -12 58 -19 90 -19 29 0 65 -6 80 -14 36 -19 130 -46 160 -46 33
0 151 -39 159 -52 4 -6 0 -29 -8 -52 -8 -23 -13 -65 -11 -96 1 -30 -1 -61 -5
-68 -7 -9 210 -12 1072 -12 l1080 0 -18 43 c-10 23 -21 78 -25 122 -4 47 -16
98 -28 124 -25 53 -208 239 -265 270 -46 24 -188 198 -241 295 -64 115 -88
145 -159 198 -30 21 -58 51 -64 66 -5 14 -30 56 -54 93 -25 37 -45 70 -45 74
0 18 -95 148 -128 175 -42 35 -67 37 -102 10 -33 -26 -48 -26 -25 0 10 11 23
20 30 20 7 0 17 33 24 87 7 49 23 131 36 183 24 97 64 269 91 395 8 39 22 95
31 125 9 30 19 114 23 185 4 84 13 144 23 169 10 21 14 49 11 62 -4 15 -1 31
9 42 9 11 17 49 21 102 6 86 16 143 42 257 47 206 105 497 139 693 14 80 31
161 39 180 8 19 17 64 20 100 6 66 24 125 66 219 20 43 28 50 59 56 20 4 39
11 42 17 4 6 46 17 94 24 48 8 120 28 159 44 39 17 77 30 84 30 7 0 34 19 60
43 26 24 63 54 82 67 19 13 74 58 121 100 225 197 206 184 288 201 42 9 85 19
96 23 16 6 17 6 5 -3 -12 -9 -11 -11 8 -11 13 0 21 4 17 9 -3 6 10 13 30 17
19 3 38 11 42 17 7 12 -237 0 -272 -13 -12 -4 -48 -32 -80 -62 -64 -58 -100
-83 -190 -127 -33 -17 -81 -46 -107 -66 -27 -20 -48 -31 -48 -25 0 16 84 99
130 128 l35 22 -38 0 c-33 0 -45 -8 -100 -63 -35 -34 -74 -79 -87 -100 -14
-21 -34 -39 -45 -42 -11 -2 -51 -11 -90 -19 -70 -16 -125 -21 -125 -11 0 3 19
25 42 48 49 50 110 144 129 202 9 25 14 83 13 155 0 96 -4 122 -21 155 -11 22
-24 59 -28 83 -4 23 -9 42 -11 42 -3 0 -24 -10 -46 -21 -50 -26 -114 -87 -153
-149 -16 -25 -48 -70 -71 -100 -50 -66 -114 -185 -140 -259 -10 -29 -24 -56
-31 -58 -29 -11 -105 32 -179 102 l-77 72 5 54 c4 37 -1 76 -14 124 -11 39
-20 78 -21 88 -1 9 -5 17 -9 17 -15 0 -30 -78 -26 -138 1 -34 2 -62 1 -62 -1
0 -17 28 -36 63 -42 73 -57 148 -57 272 0 67 4 96 16 114 26 37 33 86 19 133
-15 51 -27 57 -50 22 -14 -22 -18 -53 -20 -168 -1 -78 -7 -159 -13 -181 -6
-22 -16 -112 -23 -200 -14 -191 -5 -237 62 -316 22 -27 38 -49 34 -49 -22 0
-158 104 -239 182 -113 111 -227 211 -233 205 -13 -13 16 -63 68 -117 59 -61
73 -85 44 -74 -8 4 -15 10 -15 14 0 4 -14 13 -32 21 -17 7 -26 15 -20 17 13 4
4 14 -56 66 -20 18 -38 38 -40 45 -1 7 -17 30 -34 52 -193 240 -305 627 -270
937 7 59 16 123 21 142 6 19 17 67 27 105 17 73 25 92 81 215 125 273 341 496
607 626 222 107 359 139 616 139 165 0 182 -2 301 -33 243 -62 410 -147 574
-289 185 -160 336 -388 394 -593 12 -41 25 -88 30 -105 40 -131 57 -364 39
-505 -15 -115 -30 -195 -36 -200 -4 -3 -13 -26 -20 -52 -6 -27 -23 -71 -37
-100 -14 -28 -25 -56 -25 -60 0 -22 -62 -138 -70 -133 -6 4 -10 -2 -10 -12 0
-11 -4 -23 -9 -28 -5 -6 -7 -25 -4 -42 4 -24 11 -33 24 -33 11 0 22 7 25 15 4
8 11 15 16 15 6 0 5 -6 -2 -15 -7 -8 -9 -15 -5 -15 4 0 3 -6 -3 -13 -8 -10 -6
-13 9 -14 10 -1 19 2 19 8 0 5 5 9 10 9 6 0 10 -8 8 -17 -2 -14 3 -17 22 -15
14 1 30 -4 36 -13 10 -13 22 -15 63 -9 31 4 51 12 51 19 0 18 25 26 39 12 6
-6 24 -12 40 -13 24 -1 27 2 23 22 -2 13 -1 32 3 41 9 26 7 28 -21 25 -21 -3
-25 0 -22 15 2 10 11 16 19 14 8 -2 25 -4 39 -5 14 -2 38 -8 55 -15 24 -10 31
-10 40 2 7 9 17 11 30 6 32 -12 35 -11 29 19 -6 29 -5 29 40 28 45 -1 57 -8
36 -21 -13 -8 13 -35 34 -35 8 0 18 5 21 10 4 6 16 8 27 4 16 -5 19 -3 14 14
-5 16 -1 21 24 25 21 5 30 12 30 27 0 11 5 20 10 20 14 0 13 -23 -2 -38 -8 -8
-8 -15 2 -27 11 -13 15 -13 22 -3 8 10 11 10 15 1 2 -7 15 -13 28 -13 13 0 27
-4 30 -10 10 -16 36 -12 51 8 12 16 13 15 14 -5 0 -12 5 -25 11 -28 7 -5 9 5
7 26 -3 37 -20 44 -53 22 -28 -18 -31 -17 -54 23 -28 48 -18 57 17 16 16 -18
31 -29 35 -26 4 4 2 13 -5 21 -16 19 -2 28 16 11 23 -23 60 -17 64 10 2 12 -1
22 -7 22 -19 0 -12 38 9 45 25 8 41 -1 34 -19 -3 -8 0 -17 6 -21 8 -5 5 -11
-7 -21 -15 -11 -16 -15 -4 -23 18 -12 7 -43 -13 -35 -13 5 -13 2 -3 -20 14
-30 27 -34 27 -8 0 11 9 27 20 37 16 14 22 15 35 5 8 -7 12 -17 8 -24 -4 -6 0
-5 9 2 12 10 17 10 20 1 5 -15 38 -5 38 12 0 6 -9 13 -19 16 -16 4 -18 9 -9
39 5 19 7 38 4 43 -3 5 0 14 8 20 11 9 18 8 30 -4 18 -18 21 -29 6 -20 -21 13
-31 -7 -11 -22 12 -8 21 -21 21 -29 0 -11 8 -14 27 -12 32 4 44 28 14 28 -12
0 -21 5 -21 11 0 6 13 9 29 7 21 -2 34 4 48 21 14 17 25 22 38 17 17 -6 17 -7
1 -19 -9 -7 -18 -19 -19 -27 -2 -8 -6 -20 -10 -27 -4 -6 -2 -15 4 -19 6 -4 15
-1 20 7 28 50 59 85 89 102 19 10 40 26 47 35 9 12 15 14 20 6 13 -19 53 -27
68 -14 20 16 19 0 -1 -29 -21 -29 -4 -52 24 -34 17 10 19 7 19 -34 1 -41 -1
-44 -15 -30 -12 12 -13 19 -4 30 10 11 5 14 -24 15 -19 1 -40 5 -46 8 -7 4 -8
3 -4 -4 4 -7 17 -12 29 -13 20 -1 20 -2 -3 -9 -41 -13 -80 -11 -80 4 0 8 6 13
14 12 8 0 14 4 13 9 -1 6 -7 9 -13 7 -7 -1 -15 2 -19 8 -3 5 -13 10 -22 10
-12 0 -14 -7 -10 -30 4 -16 2 -32 -3 -35 -19 -12 3 -27 30 -21 34 6 44 -2 27
-22 -10 -14 -9 -15 8 -8 11 5 26 8 33 7 26 -2 38 -2 57 2 11 2 28 -1 37 -7 23
-14 34 -1 18 20 -17 20 0 33 36 26 17 -3 24 0 24 12 0 17 9 20 48 16 13 -1 37
4 54 11 25 10 31 10 38 -2 9 -14 107 -22 115 -9 9 14 -65 80 -90 80 -47 0 -25
15 27 18 28 1 57 7 64 13 18 15 32 -17 15 -34 -12 -12 -15 -37 -3 -37 4 0 16
14 27 30 14 21 28 30 48 30 20 0 27 5 27 20 0 17 4 19 28 14 15 -4 40 -16 55
-26 30 -21 57 -18 57 7 0 8 7 15 16 15 8 0 12 -4 9 -10 -3 -5 -2 -18 4 -27 9
-16 11 -14 16 13 4 16 16 36 27 43 17 11 22 9 36 -10 l15 -22 13 24 c16 31 10
40 -26 32 -21 -4 -30 -2 -30 7 0 9 11 11 38 7 21 -2 47 0 57 6 15 8 17 7 13
-11 -3 -12 -1 -23 6 -25 6 -2 7 -8 3 -13 -5 -5 -15 -1 -23 10 -8 11 -14 16
-14 10 0 -5 -4 -26 -9 -46 -7 -30 -6 -38 5 -38 8 0 14 7 14 15 0 8 5 15 10 15
6 0 16 11 22 25 16 35 32 31 24 -5 -4 -22 -2 -30 9 -30 10 0 15 10 15 30 0 17
5 30 10 30 10 0 14 -21 11 -47 -4 -27 15 -11 25 22 8 25 8 36 0 39 -6 2 0 5
14 5 34 1 62 -22 54 -44 -6 -15 -5 -16 16 -3 17 10 24 10 27 1 6 -17 33 -4 33
17 0 25 46 35 66 15 26 -25 43 -17 65 30 21 44 22 45 71 45 34 0 47 3 42 11
-9 15 46 3 61 -13 7 -7 3 -8 -12 -4 -13 4 -30 3 -39 -2 -15 -8 -14 -10 2 -16
16 -6 16 -8 4 -16 -12 -8 -12 -10 4 -10 12 0 16 -5 12 -15 -3 -10 1 -15 13
-15 11 0 21 -5 23 -10 2 -6 44 -13 93 -17 73 -4 88 -3 78 7 -8 9 -9 19 -2 32
11 20 3 42 -12 32 -5 -3 -7 -14 -4 -25 5 -16 1 -19 -24 -19 -21 0 -32 6 -36
20 -3 11 -13 20 -22 20 -12 0 -13 3 -3 15 6 8 9 19 5 25 -3 5 1 10 9 10 10 0
16 -9 16 -21 0 -27 24 -19 28 9 4 23 17 29 27 12 3 -5 0 -10 -7 -10 -8 -1 -6
-6 6 -15 17 -13 22 -13 43 0 19 13 23 13 23 1 0 -7 -7 -19 -16 -27 -14 -11
-12 -14 11 -27 28 -14 50 -7 25 9 -13 8 -13 10 0 18 8 5 18 7 22 5 4 -3 8 9 8
25 0 26 -4 30 -21 28 -12 -1 -24 4 -26 11 -3 7 5 12 21 12 16 0 26 6 26 15 0
18 -16 20 -23 3 -3 -8 -6 -6 -6 5 -1 9 6 17 14 17 13 0 15 189 15 1640 l0
1640 -4370 0 -4370 0 0 -2640z m8067 -566 c-3 -3 -12 -4 -19 -1 -8 3 -5 6 6 6
11 1 17 -2 13 -5z m623 -34 c0 -5 -4 -10 -10 -10 -5 0 -10 5 -10 10 0 6 5 10
10 10 6 0 10 -4 10 -10z m-420 -20 c0 -5 -5 -10 -11 -10 -5 0 -7 5 -4 10 3 6
8 10 11 10 2 0 4 -4 4 -10z m220 -5 c0 -8 -7 -15 -16 -15 -14 0 -14 3 -4 15 7
8 14 15 16 15 2 0 4 -7 4 -15z m-270 -5 c0 -5 -7 -10 -15 -10 -8 0 -15 5 -15
10 0 6 7 10 15 10 8 0 15 -4 15 -10z m250 -20 c12 -8 9 -10 -13 -10 -16 0 -26
4 -22 10 8 12 16 12 35 0z m177 -12 c-3 -8 -6 -5 -6 6 -1 11 2 17 5 13 3 -3 4
-12 1 -19z m50 16 c-3 -3 -12 -4 -19 -1 -8 3 -5 6 6 6 11 1 17 -2 13 -5z
m-737 -14 c0 -5 -4 -10 -10 -10 -5 0 -10 5 -10 10 0 6 5 10 10 10 6 0 10 -4
10 -10z m535 -30 c-17 -19 -17 -20 5 -28 21 -8 21 -9 5 -16 -10 -3 -18 -5 -19
-4 -1 2 -7 13 -14 26 -11 20 -10 25 10 42 28 22 37 7 13 -20z m-75 26 c0 -3
-4 -8 -10 -11 -5 -3 -10 -1 -10 4 0 6 5 11 10 11 6 0 10 -2 10 -4z m180 -17
c0 -5 -7 -9 -15 -9 -15 0 -20 12 -9 23 8 8 24 -1 24 -14z m-40 -9 c0 -10 -31
-23 -38 -15 -8 7 19 35 29 29 5 -3 9 -9 9 -14z m-280 -30 c0 -15 -5 -12 -26
11 -19 22 -19 22 4 10 12 -6 22 -16 22 -21z m387 4 c-9 -9 -28 6 -21 18 4 6
10 6 17 -1 6 -6 8 -13 4 -17z m-602 -4 c17 -7 16 -9 -10 -10 l-30 -1 28 -15
c15 -8 27 -16 27 -17 0 -1 -27 -3 -61 -3 l-61 -1 34 15 c18 8 27 16 20 19 -6
3 -10 9 -6 14 6 11 32 11 59 -1z m135 -13 c0 -12 -6 -17 -17 -15 -26 5 -28 34
-3 34 13 0 20 -7 20 -19z m-1530 -7 c0 -5 -2 -10 -4 -10 -3 0 -8 5 -11 10 -3
6 -1 10 4 10 6 0 11 -4 11 -10z m1150 2 c0 -13 -12 -22 -22 -16 -10 6 -1 24
13 24 5 0 9 -4 9 -8z m50 -2 c0 -5 -4 -10 -10 -10 -5 0 -10 5 -10 10 0 6 5 10
10 10 6 0 10 -4 10 -10z m-360 -10 c13 -8 13 -10 -2 -10 -9 0 -20 5 -23 10 -8
13 5 13 25 0z m620 1 c0 -6 -4 -13 -10 -16 -5 -3 -10 1 -10 9 0 9 5 16 10 16
6 0 10 -4 10 -9z m384 -22 c-7 -11 -41 -12 -48 0 -9 13 2 19 29 13 14 -2 22
-8 19 -13z m-1328 -20 c3 -6 1 -16 -5 -22 -9 -9 -14 -8 -21 3 -9 15 -4 30 10
30 5 0 12 -5 16 -11z m-1039 -5 c-3 -3 -12 -4 -19 -1 -8 3 -5 6 6 6 11 1 17
-2 13 -5z m641 -8 c-7 -8 -17 -12 -22 -9 -4 3 -2 9 5 14 22 13 31 11 17 -5z
m724 -5 c-2 -9 3 -9 19 -1 14 8 25 8 31 2 11 -11 4 -17 -32 -25 -20 -5 -27 -1
-37 19 -10 22 -9 25 5 22 9 -3 16 -10 14 -17z m-392 -1 c0 -5 -7 -10 -16 -10
-8 0 -12 5 -9 10 3 6 10 10 16 10 5 0 9 -4 9 -10z m308 -11 c-13 -20 -68 -37
-68 -21 0 9 51 40 69 41 11 1 11 -3 -1 -20z m-1118 -4 c0 -8 -4 -15 -10 -15
-5 0 -10 7 -10 15 0 8 5 15 10 15 6 0 10 -7 10 -15z m691 0 c-1 -15 -24 -12
-29 3 -3 9 2 13 12 10 10 -1 17 -7 17 -13z m164 -14 c7 -12 -12 -24 -25 -16
-11 7 -4 25 10 25 5 0 11 -4 15 -9z m-695 -11 c0 -5 -4 -10 -9 -10 -6 0 -13 5
-16 10 -3 6 1 10 9 10 9 0 16 -4 16 -10z m485 0 c3 -5 -3 -10 -14 -10 -11 0
-23 5 -26 10 -3 6 3 10 14 10 11 0 23 -4 26 -10z m283 -45 c2 -38 1 -39 -13
-20 -9 11 -20 20 -25 20 -6 0 -9 5 -9 10 7 52 43 44 47 -10z m39 8 c-3 -3 -11
-2 -17 2 -8 5 -7 11 2 22 12 15 13 14 16 -1 2 -10 1 -20 -1 -23z m-552 7 c-3
-5 -12 -10 -18 -10 -7 0 -6 4 3 10 19 12 23 12 15 0z m185 -5 c0 -8 -4 -15
-10 -15 -5 0 -10 7 -10 15 0 8 5 15 10 15 6 0 10 -7 10 -15z m-510 -15 c0 -5
-8 -10 -17 -10 -15 0 -16 2 -3 10 19 12 20 12 20 0z m977 -5 c-11 -7 -25 -11
-33 -8 -25 10 -15 23 19 23 30 -1 31 -2 14 -15z m-917 -11 c0 -8 -4 -12 -10
-9 -5 3 -10 10 -10 16 0 5 5 9 10 9 6 0 10 -7 10 -16z m822 -9 c0 -5 -5 -11
-11 -13 -6 -2 -11 4 -11 13 0 9 5 15 11 13 6 -2 11 -8 11 -13z m-82 -1 c0 -9
-28 -34 -39 -34 -6 0 -3 9 6 20 17 19 33 26 33 14z m-1475 -14 c-3 -5 -16 -10
-28 -10 -18 0 -19 2 -7 10 20 13 43 13 35 0z m281 2 c7 -4 14 -18 15 -32 3
-18 10 -25 26 -25 13 0 22 -4 22 -10 -3 -20 -11 -35 -21 -35 -5 0 -6 5 -3 10
3 6 2 10 -4 10 -5 0 -11 -4 -13 -9 -1 -5 -12 -3 -23 5 -16 12 -18 18 -7 34 8
14 9 20 1 20 -6 0 -9 6 -6 14 4 9 -1 17 -11 19 -13 4 -13 5 -2 6 8 0 20 -3 26
-7z m332 -3 c-2 -6 -8 -10 -13 -10 -5 0 -11 4 -13 10 -2 6 4 11 13 11 9 0 15
-5 13 -11z m42 1 c0 -5 -2 -10 -4 -10 -3 0 -8 5 -11 10 -3 6 -1 10 4 10 6 0
11 -4 11 -10z m245 -9 c7 -12 -12 -24 -25 -16 -11 7 -4 25 10 25 5 0 11 -4 15
-9z m-713 -70 l20 -20 -31 1 c-29 1 -40 16 -24 31 9 10 12 9 35 -12z m43 9 c3
-5 -1 -10 -9 -10 -8 0 -18 5 -21 10 -3 6 1 10 9 10 8 0 18 -4 21 -10z m-140
-20 c3 -5 -1 -10 -9 -10 -9 0 -16 5 -16 10 0 6 4 10 9 10 6 0 13 -4 16 -10z
m-55 -40 c0 -5 -12 -10 -27 -9 -25 0 -26 1 -8 9 27 12 35 12 35 0z m95 -19 c3
-5 1 -12 -5 -16 -5 -3 -10 1 -10 9 0 18 6 21 15 7z m-155 -16 c7 -9 10 -18 6
-22 -3 -3 -6 -1 -6 5 0 7 -9 12 -20 12 -11 0 -20 5 -20 10 0 15 26 12 40 -5z
m104 -40 c-16 -25 -64 -36 -64 -15 0 6 9 10 21 10 15 0 19 5 15 15 -4 11 2 15
20 15 24 0 24 -1 8 -25z m-2256 -205 c-7 -10 -14 -18 -15 -16 -6 6 9 36 18 36
5 0 4 -9 -3 -20z m42 -169 c0 -5 8 -11 18 -14 16 -4 16 -4 -2 -12 -11 -5 -21
-3 -26 5 -6 9 -11 7 -19 -9 -7 -11 -16 -21 -21 -21 -14 0 -12 34 2 48 14 14
48 16 48 3z m-230 -40 c0 -11 -26 -22 -34 -14 -12 12 -5 23 14 23 11 0 20 -4
20 -9z m103 -50 c-7 -32 -9 -35 -22 -26 -8 4 -8 12 0 27 8 14 8 23 0 31 -20
20 -12 31 9 12 14 -13 18 -25 13 -44z m207 29 c22 -7 21 -8 -12 -9 -21 -1 -38
4 -38 9 0 11 14 11 50 0z m-266 -21 c-3 -5 -10 -7 -15 -3 -5 3 -7 10 -3 15 3
5 10 7 15 3 5 -3 7 -10 3 -15z m-154 -3 c0 -3 -4 -8 -10 -11 -5 -3 -10 -1 -10
4 0 6 5 11 10 11 6 0 10 -2 10 -4z m-55 -46 c3 -5 -1 -10 -9 -10 -8 0 -18 5
-21 10 -3 6 1 10 9 10 8 0 18 -4 21 -10z m-78 -41 c-15 -24 -33 -24 -39 -1 -4
13 2 17 23 18 24 1 26 -1 16 -17z m-277 -14 c0 -8 -7 -15 -15 -15 -9 0 -12 6
-9 15 4 8 10 15 15 15 5 0 9 -7 9 -15z m200 0 c0 -8 -9 -15 -20 -15 -22 0 -27
15 -7 23 21 9 27 7 27 -8z m-430 -5 c0 -5 -4 -10 -10 -10 -5 0 -10 5 -10 10 0
6 5 10 10 10 6 0 10 -4 10 -10z m375 0 c3 -5 -1 -10 -9 -10 -9 0 -16 5 -16 10
0 6 4 10 9 10 6 0 13 -4 16 -10z m-67 -21 c-2 -6 -8 -10 -13 -10 -5 0 -11 4
-13 10 -2 6 4 11 13 11 9 0 15 -5 13 -11z m171 -11 c12 -31 3 -43 -19 -23 -10
9 -24 13 -35 9 -17 -7 -17 -6 1 13 25 28 43 28 53 1z m-532 -10 c-3 -8 -6 -5
-6 6 -1 11 2 17 5 13 3 -3 4 -12 1 -19z m193 8 c0 -3 -4 -8 -10 -11 -5 -3 -10
-1 -10 4 0 6 5 11 10 11 6 0 10 -2 10 -4z m220 -18 c0 -6 -7 -7 -16 -4 -9 3
-18 6 -20 6 -3 0 -3 4 1 10 7 11 35 2 35 -12z m-140 2 c0 -5 -4 -10 -10 -10
-5 0 -10 5 -10 10 0 6 5 10 10 10 6 0 10 -4 10 -10z m208 -38 c-1 -5 -14 -5
-28 -1 l-25 6 25 10 c24 10 36 3 28 -15z m-288 -42 c0 -5 -4 -10 -10 -10 -5 0
-10 5 -10 10 0 6 5 10 10 10 6 0 10 -4 10 -10z m-337 -66 c11 -12 -17 -30 -40
-26 -23 4 -29 13 -16 25 8 9 48 9 56 1z m-339 -30 c17 -6 22 -24 8 -24 -5 0
-17 7 -28 15 -19 15 -8 20 20 9z m-344 -48 c0 -47 -17 -55 -22 -11 -2 20 -2
38 1 40 13 13 21 2 21 -29z m-103 -32 c-3 -3 -12 -4 -19 -1 -8 3 -5 6 6 6 11
1 17 -2 13 -5z m320 -10 c-3 -3 -12 -4 -19 -1 -8 3 -5 6 6 6 11 1 17 -2 13 -5z
m-177 -39 c0 -8 -4 -15 -10 -15 -5 0 -10 7 -10 15 0 8 5 15 10 15 6 0 10 -7
10 -15z m-510 -35 c0 -5 -4 -10 -10 -10 -5 0 -10 5 -10 10 0 6 5 10 10 10 6 0
10 -4 10 -10z m190 -30 c0 -16 7 -20 38 -21 l37 -2 -40 -6 c-43 -7 -68 8 -58
35 8 21 23 17 23 -6z m-260 -20 c0 -5 -2 -10 -4 -10 -3 0 -8 5 -11 10 -3 6 -1
10 4 10 6 0 11 -4 11 -10z m40 -6 c0 -2 -7 -4 -15 -4 -8 0 -15 4 -15 10 0 5 7
7 15 4 8 -4 15 -8 15 -10z m-60 -28 c0 -11 -19 -15 -25 -6 -3 5 1 10 9 10 9 0
16 -2 16 -4z m76 -17 c10 -17 -8 -28 -38 -22 -32 6 -37 19 -10 26 30 8 41 7
48 -4z m-443 -82 c-9 -16 -26 12 -18 30 7 17 8 17 15 -2 4 -11 5 -24 3 -28z
m-173 23 c0 -5 -4 -10 -10 -10 -5 0 -10 5 -10 10 0 6 5 10 10 10 6 0 10 -4 10
-10z m526 -41 c18 -7 18 -7 0 -14 -21 -9 -36 9 -35 40 0 19 1 19 8 1 4 -11 16
-23 27 -27z m-281 -33 c11 5 15 -1 15 -20 0 -14 -4 -26 -10 -26 -5 0 -12 0
-15 0 -3 0 -4 2 -2 5 1 2 -7 10 -17 18 -13 10 -17 20 -12 33 7 18 8 18 17 2 5
-10 16 -15 24 -12z m-228 -20 c-5 -16 -27 -19 -27 -3 0 7 7 14 15 14 9 0 14
-5 12 -11z m311 -3 c2 -8 -6 -13 -22 -13 -17 0 -26 5 -26 16 0 19 41 16 48 -3z
m-398 -3 c0 -5 -7 -10 -15 -10 -8 0 -15 5 -15 10 0 6 7 10 15 10 8 0 15 -4 15
-10z m-60 -10 c0 -6 12 -16 26 -22 23 -11 28 -10 40 7 13 17 16 18 24 5 5 -9
5 -19 -2 -27 -12 -15 -58 -18 -58 -3 0 6 -6 10 -14 10 -10 0 -12 -7 -9 -22 4
-17 3 -20 -5 -13 -17 15 -27 75 -13 75 6 0 11 -5 11 -10z m-190 -70 c12 -8 9
-10 -13 -10 -16 0 -26 4 -22 10 8 12 16 12 35 0z m-125 -30 c3 -5 1 -10 -4
-10 -6 0 -11 5 -11 10 0 6 2 10 4 10 3 0 8 -4 11 -10z m125 -10 c22 -6 23 -8
6 -15 -10 -5 -21 -4 -25 2 -3 6 -13 13 -21 16 -24 9 9 7 40 -3z m-180 -30 c0
-5 -4 -10 -10 -10 -5 0 -10 5 -10 10 0 6 5 10 10 10 6 0 10 -4 10 -10z m43
-29 c3 -14 1 -18 -9 -14 -15 6 -18 16 -7 26 9 10 10 9 16 -12z m-106 -17 c-3
-3 -12 -4 -19 -1 -8 3 -5 6 6 6 11 1 17 -2 13 -5z m119 -19 c19 -14 19 -14 -1
-15 -11 0 -31 3 -43 7 -18 4 -20 8 -10 14 19 12 32 11 54 -6z m-156 1 c0 -3
-4 -8 -10 -11 -5 -3 -10 -1 -10 4 0 6 5 11 10 11 6 0 10 -2 10 -4z m40 -31
c-14 -17 -40 -20 -40 -6 0 5 10 12 23 14 12 2 24 5 26 6 2 0 -2 -6 -9 -14z"/>
<path d="M8347 5354 c-10 -11 3 -24 24 -24 10 0 19 7 19 15 0 15 -31 21 -43 9z"/>
<path d="M8320 5316 c0 -21 21 -31 31 -15 5 8 3 17 -4 21 -18 12 -27 10 -27
-6z"/>
<path d="M8394 5305 c3 -22 13 -27 19 -11 3 8 0 17 -8 19 -7 3 -12 0 -11 -8z"/>
<path d="M8167 5281 c-5 -19 9 -41 25 -41 13 0 9 37 -6 49 -11 9 -15 7 -19 -8z"/>
<path d="M8225 5260 c-3 -5 1 -10 9 -10 9 0 16 5 16 10 0 6 -4 10 -9 10 -6 0
-13 -4 -16 -10z"/>
<path d="M8280 5255 c0 -17 2 -18 24 -9 23 9 20 24 -4 24 -11 0 -20 -7 -20
-15z"/>
<path d="M7800 5253 c0 -7 33 -32 42 -33 4 0 5 6 2 14 -5 13 -44 30 -44 19z"/>
<path d="M8045 5247 c-4 -10 -5 -21 -1 -24 10 -10 18 4 13 24 -4 17 -4 17 -12
0z"/>
<path d="M8101 5214 c0 -11 3 -14 6 -6 3 7 2 16 -1 19 -3 4 -6 -2 -5 -13z"/>
<path d="M6993 5205 c-8 -21 1 -28 26 -20 18 5 19 8 7 21 -19 18 -25 18 -33
-1z"/>
<path d="M8153 5213 c-15 -5 -17 -23 -4 -23 5 0 11 7 15 15 3 8 4 15 3 14 -1
0 -8 -3 -14 -6z"/>
<path d="M7560 5200 c-12 -8 -9 -10 13 -11 15 -1 32 -2 37 -3 6 -1 10 3 10 8
1 14 -42 18 -60 6z"/>
<path d="M7890 5196 c0 -8 4 -17 9 -20 10 -7 23 19 14 28 -11 11 -23 6 -23 -8z"/>
<path d="M7832 5179 c2 -7 10 -15 17 -17 8 -3 12 1 9 9 -2 7 -10 15 -17 17 -8
3 -12 -1 -9 -9z"/>
<path d="M8680 5180 c0 -5 5 -10 10 -10 6 0 10 5 10 10 0 6 -4 10 -10 10 -5 0
-10 -4 -10 -10z"/>
<path d="M8126 5170 c-19 -6 -19 -7 -1 -13 20 -8 29 -4 24 11 -2 5 -13 6 -23
2z"/>
<path d="M6535 5160 c3 -5 8 -10 11 -10 2 0 4 5 4 10 0 6 -5 10 -11 10 -5 0
-7 -4 -4 -10z"/>
<path d="M7600 5150 c6 -11 16 -20 22 -20 6 0 3 9 -7 20 -10 11 -20 20 -22 20
-2 0 1 -9 7 -20z"/>
<path d="M7745 5159 c-4 -6 -4 -13 -1 -16 8 -8 36 5 36 17 0 13 -27 13 -35 -1z"/>
<path d="M8170 5155 c0 -8 5 -15 10 -15 6 0 10 7 10 15 0 8 -4 15 -10 15 -5 0
-10 -7 -10 -15z"/>
<path d="M7490 5150 c0 -5 5 -10 10 -10 6 0 10 5 10 10 0 6 -4 10 -10 10 -5 0
-10 -4 -10 -10z"/>
<path d="M7655 5140 c4 -6 11 -8 16 -5 14 9 11 15 -7 15 -8 0 -12 -5 -9 -10z"/>
<path d="M6690 5125 c0 -8 5 -15 10 -15 6 0 10 7 10 15 0 8 -4 15 -10 15 -5 0
-10 -7 -10 -15z"/>
<path d="M6910 5124 c0 -8 5 -12 10 -9 6 3 10 10 10 16 0 5 -4 9 -10 9 -5 0
-10 -7 -10 -16z"/>
<path d="M6790 5081 c0 -6 4 -12 10 -16 5 -3 7 -12 3 -20 -5 -16 12 -21 21 -7
9 15 -6 52 -20 52 -8 0 -14 -4 -14 -9z"/>
<path d="M6896 5075 c4 -8 8 -15 10 -15 2 0 4 7 4 15 0 8 -4 15 -10 15 -5 0
-7 -7 -4 -15z"/>
<path d="M6716 5065 c-4 -11 1 -15 19 -15 18 0 23 4 19 15 -4 8 -12 15 -19 15
-7 0 -15 -7 -19 -15z"/>
<path d="M6125 5060 c3 -5 8 -10 11 -10 2 0 4 5 4 10 0 6 -5 10 -11 10 -5 0
-7 -4 -4 -10z"/>
<path d="M6370 5030 c-12 -8 -12 -10 3 -16 21 -8 35 2 21 16 -5 5 -15 6 -24 0z"/>
<path d="M6100 5011 c-6 -11 -17 -18 -24 -15 -8 3 -17 1 -21 -5 -4 -7 4 -11
20 -11 17 0 29 -7 35 -22 9 -24 11 -22 15 30 3 38 -10 51 -25 23z"/>
<path d="M6325 5020 c4 -6 11 -8 16 -5 14 9 11 15 -7 15 -8 0 -12 -5 -9 -10z"/>
<path d="M6720 5018 c0 -4 19 -8 42 -8 23 0 38 3 35 7 -10 9 -77 10 -77 1z"/>
<path d="M5514 5002 c3 -6 -4 -18 -16 -26 -22 -16 -22 -16 10 -16 29 0 33 3
30 22 -2 12 -9 23 -17 26 -8 3 -11 0 -7 -6z"/>
<path d="M5950 4999 c0 -6 7 -9 15 -5 8 3 15 1 15 -4 0 -6 5 -10 10 -10 6 0
10 7 10 15 0 9 -9 15 -25 15 -14 0 -25 -5 -25 -11z"/>
<path d="M6410 4995 c-17 -20 9 -21 36 0 19 14 19 14 -2 15 -12 0 -27 -7 -34
-15z"/>
<path d="M5942 4955 c-1 -14 3 -25 8 -25 6 0 10 11 10 25 0 14 -4 25 -8 25 -4
0 -9 -11 -10 -25z"/>
<path d="M6257 4960 c-7 -27 -1 -39 12 -24 5 5 5 18 2 28 -7 18 -8 18 -14 -4z"/>
<path d="M6630 4961 c0 -6 5 -13 10 -16 6 -3 10 1 10 9 0 9 -4 16 -10 16 -5 0
-10 -4 -10 -9z"/>
<path d="M5575 4890 c-3 -5 -1 -10 4 -10 6 0 11 5 11 10 0 6 -2 10 -4 10 -3 0
-8 -4 -11 -10z"/>
<path d="M5922 4860 c0 -14 2 -19 5 -12 2 6 2 18 0 25 -3 6 -5 1 -5 -13z"/>
<path d="M5570 4860 c0 -5 7 -10 15 -10 8 0 15 5 15 10 0 6 -7 10 -15 10 -8 0
-15 -4 -15 -10z"/>
<path d="M5321 4764 l-24 -24 31 11 c17 6 33 17 36 25 8 21 -16 15 -43 -12z"/>
<path d="M5360 4735 c0 -8 7 -15 16 -15 14 0 14 3 4 15 -7 8 -14 15 -16 15 -2
0 -4 -7 -4 -15z"/>
<path d="M3790 4470 c0 -5 7 -10 16 -10 8 0 12 5 9 10 -3 6 -10 10 -16 10 -5
0 -9 -4 -9 -10z"/>
<path d="M4925 4470 c3 -5 8 -10 11 -10 2 0 4 5 4 10 0 6 -5 10 -11 10 -5 0
-7 -4 -4 -10z"/>
<path d="M3700 4460 c0 -5 5 -10 10 -10 6 0 10 5 10 10 0 6 -4 10 -10 10 -5 0
-10 -4 -10 -10z"/>
<path d="M3508 4435 c-7 -36 7 -40 36 -10 33 33 32 35 -3 35 -23 0 -30 -5 -33
-25z"/>
<path d="M3393 4390 c-7 -11 -13 -24 -13 -30 0 -5 6 -9 13 -7 6 1 11 -6 9 -15
-3 -20 24 -25 31 -5 3 8 9 6 20 -8 8 -11 19 -17 22 -13 12 12 -4 40 -25 45
-11 3 -20 8 -20 12 0 4 -6 15 -12 24 -12 16 -14 16 -25 -3z"/>
<path d="M3785 4389 c-4 -6 -5 -13 -2 -16 7 -7 27 6 27 18 0 12 -17 12 -25 -2z"/>
<path d="M3955 4380 c3 -5 8 -10 11 -10 2 0 4 5 4 10 0 6 -5 10 -11 10 -5 0
-7 -4 -4 -10z"/>
<path d="M3320 4330 c0 -5 5 -10 10 -10 6 0 10 5 10 10 0 6 -4 10 -10 10 -5 0
-10 -4 -10 -10z"/>
<path d="M2890 4265 c-6 -8 -9 -19 -5 -25 8 -12 16 -13 34 -1 12 8 12 12 -1
25 -14 13 -18 13 -28 1z"/>
<path d="M3170 4265 c0 -17 2 -18 24 -9 18 7 12 24 -10 24 -8 0 -14 -7 -14
-15z"/>
<path d="M3230 4250 c0 -5 7 -10 15 -10 8 0 15 5 15 10 0 6 -7 10 -15 10 -8 0
-15 -4 -15 -10z"/>
<path d="M2825 4240 c-3 -5 -17 -10 -31 -10 -15 0 -24 -6 -24 -15 0 -9 9 -15
24 -15 14 0 28 -4 31 -10 10 -17 21 -11 22 12 1 13 7 24 13 26 5 2 10 8 10 13
0 12 -37 12 -45 -1z"/>
<path d="M3085 4240 c-8 -13 4 -32 16 -25 12 8 12 35 0 35 -6 0 -13 -4 -16
-10z"/>
<path d="M2480 4169 c0 -44 13 -48 38 -11 13 20 13 22 -2 22 -10 0 -15 4 -12
9 3 5 -1 11 -9 15 -12 4 -15 -3 -15 -35z"/>
<path d="M3048 4183 c7 -3 16 -2 19 1 4 3 -2 6 -13 5 -11 0 -14 -3 -6 -6z"/>
<path d="M2694 4168 c-4 -6 1 -8 14 -4 15 5 21 1 25 -16 5 -18 9 -20 19 -10 6
6 20 12 30 12 17 0 26 19 11 21 -40 7 -94 5 -99 -3z"/>
<path d="M2614 4139 c-3 -6 -1 -16 5 -22 9 -9 14 -8 21 3 5 8 10 18 10 23 0
11 -28 8 -36 -4z"/>
<path d="M2240 4118 c0 -4 5 -8 11 -8 6 0 8 -8 4 -19 -3 -11 -1 -22 5 -26 5
-3 10 0 10 8 0 8 9 17 20 20 32 8 23 24 -15 29 -19 2 -35 0 -35 -4z"/>
<path d="M2555 4110 c-3 -5 -1 -10 4 -10 6 0 11 5 11 10 0 6 -2 10 -4 10 -3 0
-8 -4 -11 -10z"/>
<path d="M2333 4092 c-13 -2 -23 -10 -23 -18 0 -17 1 -17 35 0 29 15 23 24
-12 18z"/>
<path d="M2073 4065 c17 -36 34 -39 29 -4 -3 20 -10 29 -22 29 -16 0 -17 -3
-7 -25z"/>
<path d="M2130 4070 c0 -13 5 -20 13 -17 6 2 12 10 12 17 0 7 -6 15 -12 18 -8
2 -13 -5 -13 -18z"/>
<path d="M2480 4075 c0 -8 7 -15 15 -15 8 0 15 7 15 15 0 8 -7 15 -15 15 -8 0
-15 -7 -15 -15z"/>
<path d="M2008 4053 c24 -10 11 -23 -22 -23 -41 0 -54 -15 -27 -29 26 -15 101
-14 101 0 0 6 -9 9 -19 6 -10 -2 -25 -1 -32 4 -10 6 -8 9 9 9 15 0 22 6 22 20
0 14 -6 20 -22 19 -13 0 -17 -3 -10 -6z"/>
<path d="M2580 4050 c0 -5 5 -10 10 -10 6 0 10 5 10 10 0 6 -4 10 -10 10 -5 0
-10 -4 -10 -10z"/>
<path d="M1865 4030 c3 -5 8 -10 11 -10 2 0 4 5 4 10 0 6 -5 10 -11 10 -5 0
-7 -4 -4 -10z"/>
<path d="M2180 4019 c0 -22 10 -24 35 -5 17 12 17 13 -8 18 -21 4 -27 1 -27
-13z"/>
<path d="M2077 4013 c-15 -14 -5 -19 31 -15 30 4 33 6 17 13 -26 10 -40 11
-48 2z"/>
<path d="M1855 3974 c-9 -14 -14 -28 -11 -32 3 -3 6 0 6 6 0 6 10 12 22 14 13
2 24 11 26 21 5 26 -23 21 -43 -9z"/>
<path d="M2270 3990 c0 -5 5 -10 10 -10 6 0 10 5 10 10 0 6 -4 10 -10 10 -5 0
-10 -4 -10 -10z"/>
<path d="M1938 3966 c-15 -11 -14 -14 16 -24 41 -15 53 -15 39 -1 -6 6 -9 18
-6 25 7 18 -26 18 -49 0z"/>
<path d="M1600 3961 c0 -6 -7 -11 -15 -11 -19 0 -19 -17 0 -37 8 -8 13 -19 10
-24 -10 -15 12 -10 25 6 10 12 10 18 0 30 -6 8 -9 19 -6 24 4 5 2 12 -4 16 -5
3 -10 1 -10 -4z"/>
<path d="M1630 3960 c0 -5 5 -10 10 -10 6 0 10 5 10 10 0 6 -4 10 -10 10 -5 0
-10 -4 -10 -10z"/>
<path d="M1797 3964 c-13 -13 -7 -24 14 -24 11 0 19 5 17 12 -5 14 -22 21 -31
12z"/>
<path d="M2033 3963 c-23 -4 -34 -43 -13 -43 6 0 10 5 10 11 0 6 6 9 13 6 8
-3 14 3 14 14 1 10 1 18 0 18 -1 -1 -12 -4 -24 -6z"/>
<path d="M1790 3910 c0 -5 11 -10 25 -10 14 0 25 5 25 10 0 6 -11 10 -25 10
-14 0 -25 -4 -25 -10z"/>
<path d="M1910 3910 c0 -5 5 -10 10 -10 6 0 10 5 10 10 0 6 -4 10 -10 10 -5 0
-10 -4 -10 -10z"/>
<path d="M1550 3895 c0 -8 5 -15 10 -15 6 0 10 7 10 15 0 8 -4 15 -10 15 -5 0
-10 -7 -10 -15z"/>
<path d="M2065 3900 c3 -5 8 -10 11 -10 2 0 4 5 4 10 0 6 -5 10 -11 10 -5 0
-7 -4 -4 -10z"/>
<path d="M1500 3886 c0 -2 7 -6 15 -10 8 -3 15 -1 15 4 0 6 -7 10 -15 10 -8 0
-15 -2 -15 -4z"/>
<path d="M1565 3860 c4 -6 11 -8 16 -5 14 9 11 15 -7 15 -8 0 -12 -5 -9 -10z"/>
<path d="M1430 3821 c0 -6 5 -13 10 -16 6 -3 10 1 10 9 0 9 -4 16 -10 16 -5 0
-10 -4 -10 -9z"/>
<path d="M1318 3768 c9 -9 15 -9 24 0 9 9 7 12 -12 12 -19 0 -21 -3 -12 -12z"/>
<path d="M1213 3753 c9 -2 23 -2 30 0 6 3 -1 5 -18 5 -16 0 -22 -2 -12 -5z"/>
<path d="M1120 3730 c0 -5 6 -10 14 -10 8 0 18 5 21 10 3 6 -3 10 -14 10 -12
0 -21 -4 -21 -10z"/>
<path d="M995 3660 c3 -5 10 -10 16 -10 5 0 9 5 9 10 0 6 -7 10 -16 10 -8 0
-12 -4 -9 -10z"/>
<path d="M920 3649 c0 -5 5 -7 10 -4 6 3 10 8 10 11 0 2 -4 4 -10 4 -5 0 -10
-5 -10 -11z"/>
<path d="M719 3608 c8 -23 25 -25 29 -5 2 8 -6 17 -17 20 -16 4 -18 1 -12 -15z"/>
<path d="M566 3611 c-3 -5 -17 -8 -31 -8 -46 0 -49 -20 -4 -25 13 -2 27 -7 31
-13 9 -12 23 2 33 33 5 16 2 22 -9 22 -8 0 -17 -4 -20 -9z"/>
<path d="M640 3590 c0 -5 5 -10 10 -10 6 0 10 5 10 10 0 6 -4 10 -10 10 -5 0
-10 -4 -10 -10z"/>
<path d="M2185 3590 c3 -5 8 -10 11 -10 2 0 4 5 4 10 0 6 -5 10 -11 10 -5 0
-7 -4 -4 -10z"/>
<path d="M888 3533 c7 -3 16 -2 19 1 4 3 -2 6 -13 5 -11 0 -14 -3 -6 -6z"/>
<path d="M545 3510 c3 -5 8 -10 11 -10 2 0 4 5 4 10 0 6 -5 10 -11 10 -5 0 -7
-4 -4 -10z"/>
<path d="M315 3491 c-3 -5 -1 -12 5 -16 12 -7 30 2 30 16 0 12 -27 12 -35 0z"/>
<path d="M191 3471 c-9 -6 -2 -10 23 -13 20 -2 36 0 36 4 0 4 -4 8 -9 8 -5 0
-15 2 -23 5 -7 3 -19 1 -27 -4z"/>
<path d="M360 3470 c0 -5 5 -10 10 -10 6 0 10 5 10 10 0 6 -4 10 -10 10 -5 0
-10 -4 -10 -10z"/>
<path d="M565 3450 c-3 -5 3 -10 15 -10 12 0 18 5 15 10 -3 6 -10 10 -15 10
-5 0 -12 -4 -15 -10z"/>
<path d="M60 3430 c0 -5 7 -10 16 -10 8 0 12 5 9 10 -3 6 -10 10 -16 10 -5 0
-9 -4 -9 -10z"/>
<path d="M180 3405 c7 -8 22 -15 33 -15 20 0 20 0 1 15 -27 20 -51 20 -34 0z"/>
<path d="M350 3405 c0 -8 5 -15 10 -15 6 0 10 7 10 15 0 8 -4 15 -10 15 -5 0
-10 -7 -10 -15z"/>
<path d="M20 3378 c0 -19 2 -20 10 -8 13 19 13 30 0 30 -5 0 -10 -10 -10 -22z"/>
<path d="M350 3370 c0 -5 5 -10 11 -10 5 0 7 5 4 10 -3 6 -8 10 -11 10 -2 0
-4 -4 -4 -10z"/>
<path d="M25 3310 c-3 -5 1 -10 10 -10 9 0 13 5 10 10 -3 6 -8 10 -10 10 -2 0
-7 -4 -10 -10z"/>
</g>
</svg>
