<?xml version="1.0" encoding="utf-8"?>
<!-- Generator: Adobe Illustrator 16.0.0, SVG Export Plug-In . SVG Version: 6.00 Build 0)  -->
<svg version="1.2" fill="currentColor" baseProfile="tiny" id="Layer_1" xmlns="http://www.w3.org/2000/svg" xmlns:xlink="http://www.w3.org/1999/xlink"
	 x="0px" y="0px" width="500px" height="500px" viewBox="0 0 500 500" xml:space="preserve">
<g>
	<g>
		<path d="M9.152,332.729v-1.244h1.617c1.866,0,3.11-0.622,3.981-1.741c0.497-0.747,0.746-2.238,0.746-4.727v-28.24
			c0-2.737-0.249-4.479-0.871-5.102c-0.87-0.995-2.114-1.368-3.732-1.368H9.152v-1.244h17.79c6.593,0,11.445,0.746,14.929,2.239
			c3.359,1.493,6.096,3.981,8.21,7.465c2.115,3.482,3.11,7.464,3.11,11.943c0,6.095-1.866,11.196-5.599,15.302
			c-4.104,4.603-10.449,6.842-18.908,6.842H9.152V332.729z M21.593,329.619c2.737,0.622,4.977,0.871,6.843,0.871
			c4.976,0,9.081-1.74,12.44-5.225c3.234-3.483,4.976-8.211,4.976-14.307s-1.616-10.822-4.976-14.307
			c-3.359-3.483-7.465-5.225-12.689-5.225c-1.99,0-4.105,0.373-6.594,0.995V329.619z"/>
		<path d="M74.465,328.501c-2.986,2.362-4.976,3.731-5.723,4.104c-1.119,0.498-2.363,0.746-3.732,0.746
			c-1.99,0-3.732-0.746-5.101-2.114c-1.367-1.369-1.989-3.235-1.989-5.474c0-1.493,0.373-2.737,0.994-3.732
			c0.871-1.493,2.363-2.861,4.604-4.105c2.239-1.244,5.847-2.86,10.822-4.727v-1.12c0-2.986-0.497-4.977-1.368-6.097
			c-0.994-1.119-2.238-1.617-4.104-1.617c-1.369,0-2.488,0.373-3.235,1.12c-0.87,0.746-1.244,1.617-1.244,2.488l0.125,1.866
			c0,0.995-0.249,1.741-0.747,2.239c-0.497,0.498-1.119,0.746-1.99,0.746c-0.746,0-1.493-0.248-1.99-0.87
			c-0.498-0.498-0.747-1.369-0.747-2.24c0-1.866,0.995-3.607,2.861-5.101s4.604-2.364,7.963-2.364c2.611,0,4.727,0.498,6.469,1.369
			c1.244,0.622,2.239,1.741,2.861,3.11c0.373,0.871,0.622,2.861,0.622,5.723v10.077c0,2.861,0,4.479,0.124,5.224
			c0.125,0.622,0.249,1.12,0.498,1.244c0.249,0.249,0.498,0.375,0.871,0.375s0.622-0.126,0.871-0.25
			c0.497-0.249,1.368-1.12,2.612-2.363v1.865c-2.364,3.235-4.728,4.853-6.843,4.853c-0.995,0-1.866-0.373-2.488-1.12
			C74.838,331.485,74.589,330.241,74.465,328.501z M74.465,326.386v-11.197c-3.235,1.244-5.349,2.239-6.345,2.737
			c-1.741,0.995-2.861,1.99-3.607,2.985c-0.747,0.996-1.12,2.115-1.12,3.359c0,1.493,0.498,2.86,1.369,3.857
			c0.87,0.994,1.99,1.491,3.234,1.491C69.738,329.619,71.852,328.501,74.465,326.386z"/>
		<path d="M95.738,308.596c3.482-4.23,6.718-6.221,9.952-6.221c1.617,0,2.986,0.373,4.105,1.244c1.12,0.746,2.114,2.115,2.736,3.981
			c0.498,1.244,0.747,3.234,0.747,5.972v12.564c0,1.865,0.124,3.109,0.497,3.856c0.249,0.497,0.622,0.995,1.12,1.244
			c0.497,0.248,1.493,0.497,2.861,0.497v1.12h-14.556v-1.12h0.622c1.369,0,2.364-0.249,2.861-0.622
			c0.498-0.373,0.871-0.995,1.12-1.866c0.124-0.373,0.124-1.367,0.124-2.984v-12.067c0-2.737-0.373-4.604-0.995-5.848
			c-0.746-1.244-1.866-1.866-3.483-1.866c-2.612,0-5.1,1.368-7.588,4.23v15.551c0,1.989,0.124,3.233,0.373,3.731
			c0.249,0.622,0.746,1.119,1.244,1.368c0.496,0.249,1.616,0.373,3.233,0.373v1.12H85.911v-1.12h0.621
			c1.492,0,2.488-0.373,2.985-1.119c0.498-0.747,0.747-2.24,0.747-4.354v-10.949c0-3.606-0.125-5.722-0.249-6.468
			c-0.125-0.747-0.373-1.244-0.747-1.618c-0.373-0.248-0.746-0.373-1.368-0.373s-1.368,0.125-2.115,0.498l-0.496-1.12l8.956-3.607
			h1.493V308.596z"/>
		<path d="M130.322,302.375v23.762c0,1.865,0.125,3.109,0.374,3.731c0.248,0.622,0.622,1.12,1.244,1.369
			c0.497,0.248,1.492,0.497,2.861,0.497v1.12h-14.307v-1.12c1.493,0,2.363-0.124,2.861-0.373s0.871-0.746,1.12-1.368
			c0.247-0.621,0.373-1.865,0.373-3.731v-11.322c0-3.233-0.126-5.225-0.249-6.22c-0.124-0.746-0.373-1.119-0.746-1.493
			c-0.375-0.248-0.747-0.373-1.369-0.373s-1.368,0.125-2.239,0.498l-0.498-1.12l8.957-3.607h1.617V302.375z M127.586,286.825
			c0.87,0,1.617,0.373,2.363,0.995c0.622,0.621,0.995,1.367,0.995,2.363c0,0.87-0.373,1.617-0.995,2.363
			c-0.622,0.622-1.368,0.995-2.363,0.995c-0.871,0-1.618-0.373-2.364-0.995c-0.621-0.622-0.994-1.368-0.994-2.363
			c0-0.871,0.373-1.618,0.994-2.363C125.968,287.198,126.715,286.825,127.586,286.825z"/>
		<path d="M143.385,314.317c0,4.354,0.996,7.838,3.235,10.326c2.115,2.487,4.727,3.731,7.588,3.731c1.991,0,3.608-0.496,5.102-1.616
			c1.368-1.119,2.612-2.861,3.607-5.474l0.994,0.622c-0.496,2.985-1.74,5.599-3.979,8.086c-2.115,2.363-4.853,3.607-8.212,3.607
			c-3.606,0-6.593-1.368-9.081-4.105c-2.488-2.736-3.732-6.469-3.732-11.196c0-5.1,1.244-8.957,3.856-11.818
			c2.613-2.861,5.848-4.23,9.705-4.23c3.357,0,5.971,1.12,8.21,3.235c2.115,2.239,3.233,5.101,3.233,8.709h-20.526V314.317z
			 M143.385,312.452h13.685c-0.124-1.866-0.373-3.234-0.622-3.981c-0.497-1.244-1.368-2.114-2.363-2.861
			c-1.12-0.746-2.115-0.995-3.358-0.995c-1.742,0-3.359,0.746-4.728,2.115C144.505,308.098,143.634,309.964,143.385,312.452z"/>
		<path d="M177.971,286.825v39.188c0,1.866,0.123,3.109,0.373,3.731c0.249,0.622,0.621,1.119,1.243,1.368
			c0.497,0.373,1.617,0.498,3.11,0.498v1.119h-14.432v-1.119c1.369,0,2.24-0.125,2.737-0.373c0.498-0.249,0.871-0.747,1.12-1.369
			s0.373-1.866,0.373-3.731v-26.871c0-3.359-0.124-5.35-0.249-6.097c-0.124-0.746-0.373-1.244-0.746-1.617
			c-0.373-0.249-0.747-0.373-1.244-0.373c-0.498,0-1.244,0.124-2.115,0.497l-0.498-1.119l8.834-3.607h1.493V286.825z"/>
		<path d="M261.196,289.063v1.244c-1.12,0-2.115,0.249-2.737,0.622c-0.746,0.373-1.367,1.12-1.989,2.239
			c-0.373,0.747-1.12,2.488-1.991,5.35l-12.191,35.207h-1.244l-9.953-27.991l-9.952,27.991h-1.119l-12.938-36.326
			c-0.995-2.737-1.617-4.354-1.866-4.853c-0.373-0.871-0.994-1.368-1.74-1.866c-0.747-0.373-1.742-0.622-2.986-0.622v-1.244h16.173
			v1.244h-0.746c-1.12,0-1.991,0.249-2.613,0.747c-0.622,0.497-0.871,1.119-0.871,1.866c0,0.746,0.498,2.488,1.369,5.225
			l8.583,24.508l7.217-20.899l-1.244-3.732l-0.996-2.986c-0.497-1.119-0.995-1.99-1.492-2.861c-0.249-0.373-0.622-0.746-0.996-0.995
			c-0.497-0.373-1.119-0.622-1.617-0.871c-0.373-0.124-0.995-0.249-1.99-0.249v-1.244h17.044v1.244h-1.12
			c-1.244,0-2.115,0.249-2.612,0.747c-0.498,0.497-0.871,1.244-0.871,2.115c0,1.119,0.497,2.985,1.493,5.723l8.334,23.761
			l8.336-24.134c0.995-2.613,1.368-4.479,1.368-5.599c0-0.498-0.124-0.995-0.497-1.369c-0.373-0.373-0.747-0.746-1.12-0.87
			c-0.871-0.249-1.866-0.498-3.234-0.498v-1.244h12.813V289.063z"/>
		<path d="M263.436,314.317c0,4.354,0.995,7.838,3.235,10.326c2.113,2.487,4.727,3.731,7.588,3.731c1.99,0,3.608-0.496,5.101-1.616
			c1.369-1.119,2.613-2.861,3.608-5.474l0.994,0.622c-0.496,2.985-1.74,5.599-3.98,8.086c-2.114,2.363-4.852,3.607-8.211,3.607
			c-3.607,0-6.593-1.368-9.081-4.105c-2.488-2.736-3.732-6.469-3.732-11.196c0-5.1,1.244-8.957,3.856-11.818
			c2.613-2.861,5.848-4.23,9.703-4.23c3.359,0,5.973,1.12,8.212,3.235c2.115,2.239,3.233,5.101,3.233,8.709h-20.526V314.317z
			 M263.436,312.452h13.685c-0.124-1.866-0.373-3.234-0.622-3.981c-0.497-1.244-1.368-2.114-2.363-2.861
			c-1.12-0.746-2.115-0.995-3.359-0.995c-1.741,0-3.358,0.746-4.727,2.115C264.431,308.098,263.685,309.964,263.436,312.452z"/>
		<path d="M297.896,286.825v39.188c0,1.866,0.124,3.109,0.374,3.731c0.249,0.622,0.622,1.119,1.243,1.368
			c0.499,0.373,1.617,0.498,3.11,0.498v1.119h-14.431v-1.119c1.368,0,2.239-0.125,2.737-0.373c0.497-0.249,0.87-0.747,1.119-1.369
			s0.373-1.866,0.373-3.731v-26.871c0-3.359-0.124-5.35-0.248-6.097c-0.125-0.746-0.374-1.244-0.747-1.617
			c-0.373-0.249-0.746-0.373-1.244-0.373c-0.497,0-1.244,0.124-2.115,0.497l-0.497-1.119l8.832-3.607h1.493V286.825z"/>
		<path d="M316.308,286.825v39.188c0,1.866,0.125,3.109,0.373,3.731c0.249,0.622,0.622,1.119,1.244,1.368
			c0.498,0.373,1.618,0.498,3.11,0.498v1.119h-14.431v-1.119c1.368,0,2.239-0.125,2.737-0.373c0.497-0.249,0.871-0.747,1.119-1.369
			c0.249-0.622,0.374-1.866,0.374-3.731v-26.871c0-3.359-0.125-5.35-0.249-6.097c-0.125-0.746-0.373-1.244-0.747-1.617
			c-0.373-0.249-0.746-0.373-1.244-0.373c-0.497,0-1.244,0.124-2.114,0.497l-0.498-1.119l8.832-3.607h1.493V286.825z"/>
		<path d="M334.596,302.375v23.762c0,1.865,0.124,3.109,0.373,3.731s0.622,1.12,1.244,1.369c0.498,0.248,1.493,0.497,2.86,0.497
			v1.12h-14.306v-1.12c1.492,0,2.363-0.124,2.861-0.373c0.497-0.249,0.87-0.746,1.119-1.368c0.249-0.621,0.373-1.865,0.373-3.731
			v-11.322c0-3.233-0.124-5.225-0.248-6.22c-0.125-0.746-0.374-1.119-0.747-1.493c-0.373-0.248-0.746-0.373-1.368-0.373
			c-0.621,0-1.369,0.125-2.238,0.498l-0.498-1.12l8.957-3.607h1.617V302.375z M331.983,286.825c0.87,0,1.617,0.373,2.363,0.995
			c0.622,0.621,0.995,1.367,0.995,2.363c0,0.87-0.373,1.617-0.995,2.363c-0.622,0.622-1.368,0.995-2.363,0.995
			c-0.871,0-1.618-0.373-2.364-0.995s-0.995-1.368-0.995-2.363c0-0.871,0.373-1.618,0.995-2.363
			C330.241,287.198,330.987,286.825,331.983,286.825z"/>
		<path d="M351.391,308.596c3.482-4.23,6.718-6.221,9.952-6.221c1.617,0,2.986,0.373,4.104,1.244
			c1.121,0.746,2.115,2.115,2.737,3.981c0.498,1.244,0.746,3.234,0.746,5.972v12.564c0,1.865,0.125,3.109,0.498,3.856
			c0.249,0.497,0.622,0.995,1.12,1.244c0.497,0.248,1.492,0.497,2.861,0.497v1.12h-14.556v-1.12h0.622
			c1.368,0,2.364-0.249,2.861-0.622c0.498-0.373,0.871-0.995,1.12-1.866c0.124-0.373,0.124-1.367,0.124-2.984v-12.067
			c0-2.737-0.373-4.604-0.995-5.848c-0.746-1.244-1.866-1.866-3.483-1.866c-2.613,0-5.102,1.368-7.59,4.23v15.551
			c0,1.989,0.126,3.233,0.375,3.731c0.247,0.622,0.746,1.119,1.244,1.368c0.496,0.249,1.616,0.373,3.233,0.373v1.12h-14.556v-1.12
			h0.622c1.493,0,2.488-0.373,2.986-1.119c0.497-0.747,0.746-2.24,0.746-4.354v-10.949c0-3.606-0.124-5.722-0.249-6.468
			c-0.124-0.747-0.373-1.244-0.746-1.618c-0.373-0.248-0.746-0.373-1.368-0.373s-1.369,0.125-2.115,0.498l-0.498-1.12l8.958-3.607
			h1.367v5.972H351.391z"/>
		<path d="M383.735,321.907c-1.866-0.871-3.233-2.115-4.104-3.732c-0.995-1.618-1.493-3.358-1.493-5.225
			c0-2.861,1.12-5.475,3.358-7.59c2.239-2.114,4.977-3.11,8.46-3.11c2.86,0,5.225,0.747,7.34,2.115h6.221
			c0.87,0,1.491,0,1.617,0.125c0.124,0,0.249,0.124,0.373,0.248c0.123,0.249,0.249,0.498,0.249,0.996c0,0.497,0,0.995-0.126,1.119
			c-0.123,0.125-0.123,0.249-0.372,0.249c-0.124,0.124-0.746,0.124-1.617,0.124h-3.856c1.244,1.493,1.866,3.484,1.866,5.973
			c0,2.735-0.996,5.1-3.11,7.09c-2.115,1.991-4.976,2.986-8.46,2.986c-1.492,0-2.985-0.249-4.479-0.622
			c-0.995,0.871-1.617,1.493-1.866,2.115c-0.373,0.622-0.498,1.119-0.498,1.617c0,0.373,0.125,0.745,0.498,1.12
			c0.373,0.373,0.995,0.622,2.115,0.745c0.622,0.124,2.115,0.124,4.479,0.25c4.479,0.123,7.34,0.249,8.584,0.496
			c1.99,0.249,3.607,0.996,4.728,2.24c1.244,1.244,1.742,2.736,1.742,4.479c0,2.488-1.12,4.727-3.359,6.842
			c-3.359,3.11-7.714,4.728-13.063,4.728c-4.105,0-7.714-0.995-10.45-2.861c-1.617-1.12-2.363-2.239-2.363-3.359
			c0-0.496,0.124-0.994,0.373-1.492c0.373-0.746,1.119-1.866,2.239-3.358c0.123-0.249,1.243-1.369,3.233-3.484
			c-1.119-0.622-1.866-1.244-2.362-1.741c-0.499-0.498-0.748-1.12-0.748-1.742c0-0.745,0.249-1.616,0.871-2.611
			C380.127,325.266,381.496,323.773,383.735,321.907z M383.362,332.729c-0.995,1.12-1.742,2.115-2.239,3.11
			c-0.498,0.996-0.747,1.866-0.747,2.613c0,0.995,0.622,1.989,1.866,2.737c2.115,1.367,5.226,1.989,9.331,1.989
			c3.856,0,6.718-0.622,8.584-1.989c1.866-1.369,2.737-2.862,2.737-4.354c0-1.12-0.498-1.866-1.618-2.364
			c-1.119-0.498-3.358-0.746-6.594-0.871C389.707,333.352,385.975,333.104,383.362,332.729z M389.334,303.868
			c-1.617,0-2.861,0.622-3.981,1.866c-1.119,1.244-1.617,3.234-1.617,5.847c0,3.358,0.746,5.972,2.239,7.838
			c1.12,1.368,2.488,2.114,4.23,2.114c1.617,0,2.984-0.622,3.98-1.866c0.995-1.244,1.617-3.11,1.617-5.722
			c0-3.359-0.747-6.097-2.238-8.087C392.443,304.614,391.076,303.868,389.334,303.868z"/>
		<path d="M417.325,293.542v9.704h6.842v2.239h-6.842v19.158c0,1.865,0.249,3.235,0.871,3.857c0.496,0.621,1.244,0.994,2.114,0.994
			c0.746,0,1.368-0.249,2.114-0.622c0.622-0.498,1.12-1.12,1.493-1.989h1.244c-0.746,2.113-1.866,3.731-3.234,4.727
			c-1.369,1.119-2.736,1.617-4.229,1.617c-0.995,0-1.99-0.249-2.861-0.871c-0.995-0.497-1.617-1.368-2.115-2.363
			c-0.497-0.996-0.622-2.613-0.622-4.728V305.36h-4.728v-1.119c1.12-0.498,2.364-1.244,3.608-2.364
			c1.244-1.118,2.363-2.487,3.358-3.98c0.498-0.87,1.12-2.363,2.115-4.479h0.871V293.542z"/>
		<path d="M441.584,302.375c4.478,0,8.086,1.741,10.823,5.101c2.239,2.861,3.483,6.221,3.483,9.952c0,2.613-0.622,5.35-1.866,8.087
			c-1.244,2.736-2.986,4.727-5.226,6.096c-2.239,1.368-4.727,2.115-7.464,2.115c-4.479,0-7.961-1.742-10.574-5.351
			c-2.239-2.984-3.359-6.344-3.359-10.076c0-2.737,0.622-5.349,1.991-8.086c1.368-2.737,3.11-4.604,5.349-5.972
			C436.856,302.997,439.096,302.375,441.584,302.375z M440.589,304.365c-1.12,0-2.239,0.373-3.483,0.995
			c-1.12,0.622-2.115,1.866-2.737,3.608c-0.747,1.742-1.12,3.856-1.12,6.593c0,4.354,0.871,7.963,2.613,11.073
			c1.741,3.109,3.98,4.727,6.718,4.727c2.115,0,3.857-0.871,5.101-2.611c1.368-1.742,1.99-4.729,1.99-8.834
			c0-5.226-1.12-9.33-3.359-12.44C444.943,305.485,442.952,304.365,440.589,304.365z"/>
		<path d="M468.829,308.596c3.483-4.23,6.717-6.221,9.952-6.221c1.617,0,2.985,0.373,4.105,1.244
			c1.119,0.746,2.115,2.115,2.737,3.981c0.496,1.244,0.745,3.234,0.745,5.972v12.564c0,1.865,0.124,3.109,0.498,3.856
			c0.248,0.497,0.622,0.995,1.119,1.244c0.498,0.248,1.493,0.497,2.861,0.497v1.12h-14.555v-1.12h0.622
			c1.368,0,2.363-0.249,2.861-0.622c0.497-0.373,0.871-0.995,1.119-1.866c0.125-0.373,0.125-1.367,0.125-2.984v-12.067
			c0-2.737-0.373-4.604-0.995-5.848c-0.747-1.244-1.866-1.866-3.484-1.866c-2.612,0-5.1,1.368-7.588,4.23v15.551
			c0,1.989,0.124,3.233,0.373,3.731c0.249,0.622,0.747,1.119,1.244,1.368c0.498,0.249,1.616,0.373,3.234,0.373v1.12H459v-1.12h0.622
			c1.493,0,2.488-0.373,2.986-1.119c0.497-0.747,0.746-2.24,0.746-4.354v-10.949c0-3.606-0.124-5.722-0.249-6.468
			c-0.124-0.747-0.373-1.244-0.746-1.618c-0.373-0.248-0.747-0.373-1.369-0.373s-1.368,0.125-2.113,0.498l-0.498-1.12l8.957-3.607
			h1.368v5.972H468.829z"/>
	</g>
	<g>
		<path d="M375.649,152.715v2.737c-2.612,0-4.853,0.498-6.47,1.369c-1.617,0.995-3.233,2.736-4.727,5.35
			c-0.995,1.74-2.612,5.971-4.728,12.564l-28.489,82.232h-2.985l-23.264-65.189l-23.14,65.189h-2.736l-30.355-84.721
			c-2.239-6.345-3.732-10.076-4.229-11.196c-0.997-1.866-2.364-3.359-4.106-4.229c-1.741-0.871-4.105-1.369-7.091-1.369v-2.737
			h37.818v2.737h-1.865c-2.612,0-4.728,0.622-6.097,1.866c-1.368,1.244-2.114,2.613-2.114,4.354c0,1.742,1.119,5.847,3.358,12.067
			l20.029,57.227l16.919-48.643l-2.984-8.584l-2.364-6.843c-0.995-2.487-2.239-4.727-3.483-6.593
			c-0.622-0.995-1.493-1.742-2.364-2.364c-1.244-0.871-2.488-1.493-3.732-1.99c-0.995-0.249-2.488-0.498-4.478-0.498v-2.737h39.685
			v2.737h-2.736c-2.862,0-4.853,0.622-6.22,1.866c-1.244,1.244-1.991,2.861-1.991,4.853c0,2.611,1.12,6.966,3.358,13.436
			l19.532,55.483l19.406-56.229c2.239-6.221,3.359-10.574,3.359-12.938c0-1.12-0.373-2.239-1.12-3.234
			c-0.746-0.996-1.617-1.742-2.735-2.115c-1.866-0.747-4.354-0.995-7.465-0.995v-2.737h30.604V152.715z"/>
	</g>
	<g>
		<path d="M181.702,254.729c-19.78,0-34.585-5.351-44.289-15.925c-8.583-9.579-12.937-21.398-12.937-35.579
			c0-10.575,2.362-19.905,7.215-27.991c4.852-8.087,11.196-13.81,19.157-17.293c7.963-3.483,19.532-5.226,34.834-5.226h41.552v2.737
			h-3.856c-3.857,0-6.718,1.12-8.708,3.359c-1.369,1.617-2.115,5.599-2.115,11.942v65.935c0,5.724,0.497,9.455,1.617,11.072
			c1.866,2.737,4.852,4.105,9.206,4.105h3.856v2.737h-45.532V254.729z M198.123,160.678c-5.723-1.493-10.947-2.239-15.426-2.239
			c-12.067,0-21.896,4.105-29.608,12.191s-11.57,19.283-11.57,33.341c0,13.934,3.857,25.13,11.57,33.216
			c7.713,8.21,17.292,12.316,28.986,12.316c4.354,0,9.703-0.747,16.048-2.115V160.678z"/>
	</g>
</g>
</svg>
